<?xml version="1.0" standalone="no"?>
<!DOCTYPE svg PUBLIC "-//W3C//DTD SVG 20010904//EN"
 "http://www.w3.org/TR/2001/REC-SVG-20010904/DTD/svg10.dtd">
<svg version="1.0" xmlns="http://www.w3.org/2000/svg"
 width="240.000000pt" height="240.000000pt" viewBox="0 0 240.000000 240.000000"
 preserveAspectRatio="xMidYMid meet">

<g transform="translate(0.000000,240.000000) scale(0.100000,-0.100000)"
fill="#000000" stroke="none">
<path d="M605 2386 c-101 -46 -153 -191 -142 -394 8 -162 52 -294 126 -382 72
-87 189 -118 311 -81 60 19 82 31 125 74 64 64 85 121 85 227 0 149 -68 298
-195 426 -118 119 -231 167 -310 130z m132 -112 c115 -56 248 -246 274 -387
29 -159 -63 -277 -216 -277 -89 0 -165 79 -208 214 -18 59 -22 94 -22 206 0
146 9 190 52 240 30 37 54 38 120 4z"/>
<path d="M1557 2386 c-115 -42 -222 -170 -289 -348 -29 -75 -32 -94 -32 -198
-1 -100 2 -122 22 -165 27 -59 82 -119 133 -145 78 -41 215 -43 288 -6 110 57
180 219 181 418 0 215 -73 388 -185 439 -47 22 -67 23 -118 5z m100 -110 c71
-60 109 -196 101 -369 -7 -138 -31 -209 -88 -261 -67 -61 -145 -69 -238 -24
-115 55 -136 254 -47 443 40 83 110 172 162 205 57 36 73 37 110 6z"/>
<path d="M2130 1734 c-172 -63 -350 -282 -381 -469 -29 -178 67 -320 239 -356
175 -36 313 84 382 334 56 201 22 420 -76 483 -35 24 -110 27 -164 8z m140
-134 c23 -41 25 -55 24 -165 0 -102 -5 -132 -27 -201 -49 -147 -133 -234 -227
-234 -46 0 -131 40 -158 75 -54 69 -52 175 5 295 27 57 55 94 117 156 88 87
151 125 206 121 30 -2 38 -8 60 -47z"/>
<path d="M90 1672 c-75 -41 -105 -165 -76 -309 40 -197 145 -365 271 -431 98
-52 221 -31 314 54 67 60 86 104 86 205 0 79 -3 91 -39 165 -85 172 -287 322
-448 331 -59 4 -80 1 -108 -15z m225 -117 c75 -36 202 -160 239 -233 30 -59
42 -124 32 -176 -14 -71 -107 -145 -184 -146 -110 -1 -241 162 -287 358 -19
77 -17 172 5 212 11 20 18 22 74 18 42 -2 82 -13 121 -33z"/>
<path d="M1126 1289 c-215 -51 -522 -417 -662 -789 -23 -63 -28 -91 -28 -175
-1 -114 15 -163 78 -233 55 -61 115 -86 206 -85 82 0 111 8 295 86 168 71 195
70 420 -13 197 -72 274 -85 351 -55 124 47 195 179 180 334 -17 190 -193 514
-392 721 -170 177 -309 242 -448 209z m186 -122 c70 -34 159 -109 231 -194
122 -142 254 -365 302 -508 50 -148 18 -292 -76 -340 -54 -29 -117 -19 -292
44 -90 33 -191 64 -223 70 -80 14 -153 -2 -324 -74 -147 -61 -207 -74 -264
-55 -86 28 -135 103 -136 206 0 182 191 527 406 735 156 149 249 178 376 116z"/>
</g>
</svg>
