<?xml version="1.0" standalone="no"?>
<!DOCTYPE svg PUBLIC "-//W3C//DTD SVG 20010904//EN"
 "http://www.w3.org/TR/2001/REC-SVG-20010904/DTD/svg10.dtd">
<svg version="1.0" xmlns="http://www.w3.org/2000/svg"
 width="293.000000pt" height="308.000000pt" viewBox="0 0 293.000000 308.000000"
 preserveAspectRatio="xMidYMid meet">

<g transform="translate(0.000000,308.000000) scale(0.100000,-0.100000)"
fill="#000000" stroke="none">
<path d="M1625 3050 c-3 -5 -1 -10 4 -10 6 0 11 5 11 10 0 6 -2 10 -4 10 -3 0
-8 -4 -11 -10z"/>
<path d="M1750 3030 c0 -5 5 -10 10 -10 6 0 10 5 10 10 0 6 -4 10 -10 10 -5 0
-10 -4 -10 -10z"/>
<path d="M1070 3009 c0 -5 5 -7 10 -4 6 3 10 8 10 11 0 2 -4 4 -10 4 -5 0 -10
-5 -10 -11z"/>
<path d="M1930 2976 c87 -33 209 -93 290 -142 43 -26 44 -26 25 -4 -31 36
-346 181 -389 180 -6 -1 27 -16 74 -34z"/>
<path d="M1185 2970 c-3 -5 -1 -10 4 -10 6 0 11 5 11 10 0 6 -2 10 -4 10 -3 0
-8 -4 -11 -10z"/>
<path d="M887 2955 c-75 -28 -322 -204 -306 -219 2 -2 31 12 64 31 33 20 121
69 195 110 74 42 139 79 145 84 14 14 -55 9 -98 -6z"/>
<path d="M1200 2875 c-30 -7 -75 -23 -100 -34 l-45 -20 90 5 c50 3 113 12 142
20 29 8 97 14 158 14 94 0 106 2 95 15 -16 20 -259 20 -340 0z"/>
<path d="M1835 2830 c11 -4 70 -26 130 -49 115 -43 228 -104 330 -177 58 -41
251 -231 329 -324 48 -57 38 -37 -33 65 -76 111 -210 238 -318 303 -202 123
-241 143 -334 167 -93 24 -144 32 -104 15z"/>
<path d="M2310 2770 c0 -5 7 -10 15 -10 8 0 15 5 15 10 0 6 -7 10 -15 10 -8 0
-15 -4 -15 -10z"/>
<path d="M701 2673 c-132 -72 -251 -186 -405 -391 -187 -250 -244 -398 -277
-712 -35 -347 119 -795 350 -1013 111 -104 148 -114 69 -17 -110 133 -131 160
-172 230 -65 109 -158 351 -142 368 3 3 6 -1 6 -10 0 -18 62 -138 98 -188 29
-42 29 -41 -41 125 -59 140 -82 214 -102 341 -11 68 -11 98 0 185 48 359 153
615 332 804 70 74 240 222 301 263 28 19 52 36 52 38 0 9 -21 2 -69 -23z"/>
<path d="M2500 2600 c0 -5 5 -10 10 -10 6 0 10 5 10 10 0 6 -4 10 -10 10 -5 0
-10 -4 -10 -10z"/>
<path d="M367 2524 c-8 -8 1 -24 14 -24 5 0 9 7 9 15 0 15 -12 20 -23 9z"/>
<path d="M301 2443 c-50 -56 -131 -204 -131 -239 0 -21 42 39 115 162 56 95
77 134 71 134 -2 0 -27 -26 -55 -57z"/>
<path d="M2696 2353 c54 -119 107 -260 125 -332 25 -97 25 -129 -1 -73 -24 52
-34 54 -25 5 12 -65 76 -298 85 -306 4 -5 13 21 20 56 9 49 9 83 1 138 -15 97
-75 306 -110 384 -27 58 -106 185 -116 185 -3 0 7 -26 21 -57z"/>
<path d="M1448 2279 c36 -18 79 -50 106 -80 74 -82 73 -153 -4 -191 l-35 -18
53 0 c104 0 182 63 201 162 8 42 8 42 16 15 19 -72 -51 -174 -135 -197 -67
-18 -191 -8 -285 24 -175 59 -278 178 -217 250 l17 21 -24 -20 c-29 -24 -51
-74 -51 -113 0 -50 57 -147 118 -203 60 -55 199 -127 284 -148 133 -32 226 8
289 124 41 75 52 190 24 246 -52 103 -169 159 -334 159 l-84 0 61 -31z"/>
<path d="M1265 2291 c-53 -14 -95 -41 -101 -66 -6 -26 25 -104 51 -125 12 -10
17 -7 26 14 8 17 35 37 75 57 55 27 70 30 132 27 l71 -3 -20 21 c-52 56 -167
92 -234 75z"/>
<path d="M2866 1611 c-5 -7 -13 -85 -18 -174 -6 -109 -14 -169 -24 -184 -8
-12 -14 -27 -14 -33 0 -6 -27 -76 -60 -155 -112 -265 -235 -415 -466 -568
-225 -150 -397 -227 -579 -258 -69 -12 -427 -7 -555 7 -73 9 -57 -9 30 -33 93
-26 455 -26 585 0 50 9 119 22 155 29 96 16 280 94 380 161 55 37 243 226 307
310 69 90 136 205 179 308 20 49 39 88 41 86 2 -3 -1 -17 -8 -33 -23 -62 -57
-204 -49 -209 12 -7 66 83 79 130 29 113 40 220 40 397 1 180 -6 246 -23 219z"/>
<path d="M544 1537 c27 -178 25 -408 -3 -563 l-8 -42 111 2 c61 0 127 -2 146
-7 l36 -7 -1 60 c0 50 -3 59 -15 54 -8 -4 -40 -9 -70 -11 -43 -4 -59 -1 -69
11 -18 22 -25 86 -12 120 11 27 14 28 64 24 l52 -4 0 60 0 61 -60 0 -60 0 1
57 c2 80 14 92 89 86 l60 -5 0 67 0 66 -102 -4 c-61 -3 -114 0 -133 7 l-32 11
6 -43z"/>
<path d="M957 1570 c-21 -4 -49 -5 -63 -2 -28 5 -29 -2 -14 -93 12 -66 15
-410 4 -491 l-6 -51 71 1 c55 1 70 4 66 14 -8 22 -25 235 -19 241 8 8 40 -36
72 -99 20 -40 27 -70 27 -111 l0 -56 34 9 c18 5 54 7 80 3 l48 -6 -10 73 c-5
40 -7 183 -4 318 l4 245 -72 -3 -71 -3 13 -72 c7 -40 12 -112 13 -161 0 -107
-8 -105 -65 16 -32 67 -39 95 -43 160 -3 49 -9 78 -16 77 -6 -1 -28 -5 -49 -9z"/>
<path d="M1300 1574 c0 -4 32 -71 72 -150 l72 -143 -51 -98 c-52 -99 -93 -206
-93 -242 0 -18 3 -18 37 -9 21 6 56 8 78 6 l41 -5 11 66 c6 36 17 82 26 101
l15 35 17 -40 c10 -22 20 -67 22 -100 l5 -60 80 -1 80 0 -6 40 c-8 44 -62 174
-107 253 l-30 52 73 145 c40 80 70 147 68 149 -3 3 -27 1 -54 -3 -27 -4 -63
-4 -81 0 l-32 7 -6 -52 c-3 -30 -11 -64 -18 -77 l-12 -23 -13 30 c-7 17 -13
49 -14 72 l0 43 -57 -2 c-32 0 -73 2 -90 6 -18 4 -33 4 -33 0z"/>
<path d="M1764 1552 c26 -126 32 -460 9 -596 -6 -37 -5 -38 18 -30 13 5 50 9
82 9 l59 0 -6 30 c-17 100 -27 179 -22 191 6 16 49 18 77 4 14 -8 19 -21 19
-54 0 -40 -14 -129 -25 -166 -4 -13 9 -15 81 -15 l85 0 -5 25 c-26 120 -31
429 -9 588 l6 43 -27 -11 c-15 -5 -52 -10 -83 -10 l-55 0 7 -27 c14 -57 25
-140 25 -194 l0 -56 -42 -6 c-23 -3 -46 -3 -51 0 -12 7 -2 204 13 256 6 22 10
40 8 42 -2 1 -25 -1 -52 -5 -27 -4 -64 -4 -83 1 -34 7 -35 7 -29 -19z"/>
<path d="M2194 1547 c24 -120 28 -186 22 -367 -3 -107 -9 -210 -12 -229 -6
-32 -5 -33 17 -25 13 5 52 9 87 9 l64 0 -7 30 c-13 63 -17 460 -6 534 6 40 10
75 9 76 -2 2 -26 -1 -54 -5 -29 -5 -68 -5 -89 0 l-37 8 6 -31z"/>
<path d="M2690 710 c0 -5 5 -10 10 -10 6 0 10 5 10 10 0 6 -4 10 -10 10 -5 0
-10 -4 -10 -10z"/>
<path d="M430 650 c54 -79 167 -176 260 -224 50 -26 94 -45 98 -42 6 7 0 12
-118 98 -47 34 -116 87 -154 118 -37 30 -78 62 -89 70 -20 14 -20 12 3 -20z"/>
<path d="M2632 594 c4 -21 22 -23 26 -1 2 10 -3 17 -13 17 -10 0 -15 -6 -13
-16z"/>
<path d="M2530 495 c-21 -22 -28 -35 -19 -35 7 0 27 16 42 35 36 45 21 45 -23
0z"/>
<path d="M490 454 c0 -16 64 -95 102 -126 176 -144 411 -259 528 -258 33 1 32
2 -27 25 -202 78 -363 174 -544 327 -43 36 -59 45 -59 32z"/>
<path d="M2410 390 c0 -5 5 -10 10 -10 6 0 10 5 10 10 0 6 -4 10 -10 10 -5 0
-10 -4 -10 -10z"/>
<path d="M2323 314 c-8 -21 13 -42 28 -27 13 13 5 43 -11 43 -6 0 -13 -7 -17
-16z"/>
<path d="M2230 271 c0 -6 5 -13 10 -16 6 -3 10 1 10 9 0 9 -4 16 -10 16 -5 0
-10 -4 -10 -9z"/>
<path d="M2105 189 c-44 -22 -69 -37 -55 -33 30 8 140 62 140 69 0 6 8 10 -85
-36z"/>
<path d="M1886 111 c-65 -20 -110 -37 -98 -39 18 -3 218 60 230 73 9 8 -7 4
-132 -34z"/>
<path d="M1276 83 c-11 -11 -6 -23 9 -23 8 0 15 4 15 9 0 13 -16 22 -24 14z"/>
<path d="M1420 29 c0 -5 5 -7 10 -4 6 3 10 8 10 11 0 2 -4 4 -10 4 -5 0 -10
-5 -10 -11z"/>
</g>
</svg>
