<?xml version="1.0" standalone="no"?>
<!DOCTYPE svg PUBLIC "-//W3C//DTD SVG 20010904//EN"
 "http://www.w3.org/TR/2001/REC-SVG-20010904/DTD/svg10.dtd">
<svg version="1.0" xmlns="http://www.w3.org/2000/svg"
 width="685.000000pt" height="153.000000pt" viewBox="0 0 685.000000 153.000000"
 preserveAspectRatio="xMidYMid meet">

<g transform="translate(0.000000,153.000000) scale(0.100000,-0.100000)"
fill="#000000" stroke="none">
<path d="M60 1075 l0 -295 325 0 325 0 0 95 0 95 -260 0 -260 0 0 -30 0 -30
225 0 225 0 0 -35 0 -35 -255 0 -255 0 0 230 0 230 255 0 255 0 0 -30 0 -30
-225 0 -225 0 0 -100 0 -100 200 0 200 0 0 30 0 30 -165 0 -165 0 0 35 0 35
225 0 225 0 0 100 0 100 -325 0 -325 0 0 -295z"/>
<path d="M1680 1075 l0 -295 100 0 100 0 0 91 c0 83 -2 93 -27 125 -16 18 -31
34 -35 34 -5 0 -8 -43 -8 -95 l0 -95 -30 0 -30 0 0 230 0 230 53 -1 52 0 170
-197 170 -197 3 198 2 197 30 0 c24 0 30 -4 31 -22 1 -37 1 -380 0 -410 -1
-27 -3 -28 -50 -28 l-49 0 -174 202 -173 201 -3 -47 -3 -47 148 -170 c81 -94
153 -177 159 -185 8 -10 37 -14 113 -14 l101 0 0 295 0 295 -100 0 -99 0 -3
-142 -3 -143 -123 143 -123 142 -100 0 -99 0 0 -295z"/>
<path d="M3310 1364 c0 -3 35 -57 79 -120 l79 -114 16 25 c22 34 21 41 -20 97
l-37 49 44 -3 c40 -3 46 -7 80 -56 l37 -53 -122 -177 c-67 -97 -130 -189 -140
-204 l-18 -28 119 0 120 0 38 55 c20 30 40 55 44 55 3 0 23 -25 44 -55 l38
-55 120 0 120 0 -67 98 c-37 53 -83 118 -101 144 -21 29 -31 53 -27 60 4 7 47
69 94 138 48 69 90 131 94 138 6 9 -19 12 -112 12 l-118 0 -23 -30 -22 -31 19
-31 20 -31 17 27 c14 21 25 26 56 26 22 0 39 -3 39 -6 0 -3 -31 -49 -68 -102
-38 -53 -72 -102 -76 -109 -4 -7 27 -60 73 -128 l80 -115 -42 0 c-41 0 -43 2
-90 75 -27 41 -54 79 -61 85 -10 7 -27 -11 -70 -75 -55 -83 -57 -85 -97 -85
l-40 0 107 158 c59 86 113 164 121 173 12 15 6 28 -49 107 l-63 91 -117 1
c-65 0 -118 -3 -118 -6z"/>
<path d="M4930 1240 l0 -130 30 0 30 0 0 95 0 95 35 0 35 0 0 -95 0 -95 190 0
190 0 0 95 0 95 35 0 35 0 0 -230 0 -230 -35 0 -35 0 0 100 0 100 -255 0 -255
0 0 -130 0 -130 95 0 95 0 0 65 0 65 -30 0 c-28 0 -30 -3 -30 -35 0 -33 -2
-35 -35 -35 l-35 0 0 65 0 65 195 0 195 0 0 -95 0 -95 100 0 100 0 0 295 0
295 -100 0 -100 0 0 -100 0 -100 -130 0 -130 0 0 100 0 100 -95 0 -95 0 0
-130z"/>
<path d="M6550 1075 l0 -295 95 0 95 0 0 30 0 30 -65 0 -65 0 0 230 0 230 35
0 35 0 0 -195 0 -195 30 0 30 0 0 230 0 230 -95 0 -95 0 0 -295z"/>
<path d="M290 285 l0 -105 48 0 c26 0 58 6 72 13 33 17 38 59 10 85 -14 13
-18 22 -11 27 6 3 11 19 11 35 0 36 -23 50 -84 50 l-46 0 0 -105z m97 59 c4
-11 -1 -22 -12 -30 -30 -22 -45 -17 -45 16 0 25 4 30 25 30 15 0 28 -7 32 -16z
m-9 -70 c43 -12 17 -64 -32 -64 -12 0 -16 10 -16 35 0 36 6 40 48 29z"/>
<path d="M550 285 c0 -98 1 -105 20 -105 17 0 20 7 20 50 0 28 4 50 8 50 5 0
21 -22 36 -50 21 -39 33 -50 52 -50 l25 0 -32 46 -31 46 21 19 c48 45 10 99
-69 99 l-50 0 0 -105z m98 51 c4 -20 -13 -36 -40 -36 -13 0 -18 8 -18 31 0 27
3 30 27 27 18 -2 29 -10 31 -22z"/>
<path d="M810 285 c0 -98 1 -105 20 -105 19 0 20 7 20 105 0 98 -1 105 -20
105 -19 0 -20 -7 -20 -105z"/>
<path d="M980 285 c0 -100 1 -105 21 -105 20 0 21 4 17 75 -2 41 -1 75 2 75 3
0 25 -34 50 -75 35 -58 50 -75 67 -75 22 0 23 3 23 105 0 98 -1 105 -20 105
-18 0 -20 -7 -20 -77 l0 -78 -48 77 c-36 60 -52 78 -69 78 -22 0 -23 -3 -23
-105z"/>
<path d="M1319 375 c-25 -14 -49 -59 -49 -92 0 -29 31 -80 56 -92 34 -15 59
-14 94 4 27 14 30 14 30 0 0 -8 7 -15 15 -15 12 0 15 13 15 55 l0 55 -50 0
c-37 0 -50 -4 -50 -14 0 -9 12 -16 33 -18 l32 -3 -22 -22 c-30 -30 -58 -29
-88 2 -65 64 9 161 84 109 17 -13 25 -14 34 -4 9 9 6 16 -12 31 -28 23 -84 24
-122 4z"/>
<path d="M1590 285 c0 -98 1 -105 20 -105 19 0 20 7 20 105 0 98 -1 105 -20
105 -19 0 -20 -7 -20 -105z"/>
<path d="M1760 285 c0 -98 1 -105 20 -105 17 0 19 8 22 76 l3 75 45 -75 c35
-59 50 -76 67 -76 22 0 23 2 23 105 0 98 -1 105 -20 105 -17 0 -19 -8 -22 -72
l-3 -73 -45 72 c-34 55 -50 73 -67 73 -22 0 -23 -3 -23 -105z"/>
<path d="M2088 361 c-26 -23 -33 -36 -33 -69 0 -91 69 -137 145 -97 27 14 30
14 30 0 0 -8 7 -15 15 -15 12 0 15 13 15 55 l0 55 -50 0 c-38 0 -50 -4 -50
-15 0 -10 10 -15 30 -15 17 0 30 -4 30 -9 0 -14 -41 -41 -63 -41 -29 0 -67 45
-67 80 0 58 69 92 111 54 12 -11 23 -13 34 -6 15 8 14 11 -10 30 -41 32 -96
29 -137 -7z"/>
<path d="M2500 385 c0 -2 14 -26 30 -52 24 -37 30 -58 30 -100 0 -46 3 -53 20
-53 17 0 20 7 20 50 0 41 7 62 35 105 34 53 34 55 12 55 -15 0 -29 -12 -43
-38 l-22 -37 -22 38 c-13 22 -30 37 -41 37 -10 0 -19 -2 -19 -5z"/>
<path d="M2789 361 c-71 -72 -10 -194 89 -177 69 11 105 73 82 141 -23 68
-118 88 -171 36z m115 -22 c31 -24 35 -66 8 -99 -22 -27 -65 -29 -92 -5 -29
26 -27 89 2 109 30 21 50 20 82 -5z"/>
<path d="M3080 307 c0 -98 10 -116 66 -124 30 -4 45 0 64 15 22 18 25 29 29
106 3 82 2 86 -18 86 -19 0 -21 -5 -21 -74 0 -55 -4 -79 -16 -91 -40 -39 -74
7 -74 103 0 48 -3 62 -15 62 -12 0 -15 -16 -15 -83z"/>
<path d="M3360 285 c0 -98 1 -105 20 -105 17 0 20 7 20 50 0 28 3 50 8 50 4 0
20 -23 35 -50 19 -33 35 -50 48 -50 25 0 24 3 -8 51 l-26 40 21 20 c49 45 12
99 -68 99 l-50 0 0 -105z m98 51 c4 -20 -13 -36 -40 -36 -13 0 -18 8 -18 31 0
27 3 30 27 27 18 -2 29 -10 31 -22z"/>
<path d="M3760 285 c0 -98 1 -105 20 -105 19 0 20 7 20 105 0 98 -1 105 -20
105 -19 0 -20 -7 -20 -105z"/>
<path d="M3930 286 l0 -106 40 0 c57 0 108 24 120 55 17 45 12 92 -13 121 -20
23 -34 28 -85 32 l-62 4 0 -106z m110 54 c42 -42 15 -120 -42 -120 l-28 0 0
70 c0 68 1 70 25 70 14 0 34 -9 45 -20z"/>
<path d="M4210 285 l0 -105 60 0 c53 0 60 2 60 20 0 17 -7 20 -40 20 -36 0
-40 3 -40 25 0 22 4 25 35 25 24 0 35 5 35 15 0 10 -11 15 -35 15 -32 0 -35 2
-35 30 0 28 2 30 40 30 29 0 40 4 40 15 0 12 -13 15 -60 15 l-60 0 0 -105z"/>
<path d="M4466 292 c-20 -54 -36 -102 -36 -105 0 -4 9 -7 19 -7 12 0 21 9 25
25 6 22 12 25 51 25 39 0 47 -4 57 -25 6 -14 19 -25 29 -25 17 0 16 7 -10 78
-51 136 -49 132 -75 132 -21 0 -28 -11 -60 -98z m73 36 c25 -68 25 -68 -13
-68 l-35 0 16 45 c8 25 17 45 19 45 3 0 8 -10 13 -22z"/>
<path d="M4740 370 c-34 -34 -19 -72 35 -90 48 -16 69 -38 54 -56 -16 -20 -47
-17 -60 5 -7 11 -19 16 -31 13 -28 -7 -22 -30 13 -48 41 -21 94 -11 115 21 21
33 5 59 -54 87 -26 13 -47 30 -47 38 0 18 43 26 58 11 13 -13 47 -14 47 -2 0
18 -44 41 -77 41 -20 0 -41 -8 -53 -20z"/>
<path d="M5110 375 c0 -9 9 -15 25 -15 25 0 25 -1 25 -90 0 -83 1 -90 20 -90
19 0 20 7 20 90 0 89 0 90 25 90 16 0 25 6 25 15 0 12 -14 15 -70 15 -56 0
-70 -3 -70 -15z"/>
<path d="M5387 374 c-46 -25 -60 -89 -33 -143 47 -90 196 -50 196 54 0 83 -87
130 -163 89z m103 -34 c26 -26 26 -81 0 -105 -44 -40 -110 -9 -110 52 0 40 30
73 65 73 14 0 34 -9 45 -20z"/>
<path d="M5810 285 l0 -105 50 0 c43 0 50 3 50 20 0 16 -7 20 -35 20 l-35 0 0
85 c0 69 -3 85 -15 85 -12 0 -15 -18 -15 -105z"/>
<path d="M6020 285 c0 -87 3 -105 15 -105 12 0 15 18 15 105 0 87 -3 105 -15
105 -12 0 -15 -18 -15 -105z"/>
<path d="M6180 285 c0 -98 1 -105 20 -105 17 0 20 7 20 45 0 45 0 45 35 45 24
0 35 5 35 15 0 10 -11 15 -35 15 -32 0 -35 2 -35 30 0 28 2 30 40 30 29 0 40
4 40 15 0 12 -13 15 -60 15 l-60 0 0 -105z"/>
<path d="M6410 285 l0 -105 60 0 c53 0 60 2 60 20 0 17 -7 20 -40 20 -36 0
-40 3 -40 25 0 22 4 25 35 25 24 0 35 5 35 15 0 10 -11 15 -35 15 -32 0 -35 2
-35 30 0 28 2 30 40 30 29 0 40 4 40 15 0 12 -13 15 -60 15 l-60 0 0 -105z"/>
</g>
</svg>
